<svg width="40" height="40" viewBox="0 0 40 40" fill="none" xmlns="http://www.w3.org/2000/svg">
<path fill-rule="evenodd" clip-rule="evenodd" d="M4.50458 4.50491C3.33301 5.67649 3.33301 7.5621 3.33301 11.3333V28.6667C3.33301 32.4379 3.33301 34.3235 4.50458 35.4951C5.67615 36.6667 7.56177 36.6667 11.333 36.6667H28.6663C32.4376 36.6667 34.3232 36.6667 35.4948 35.4951C36.6663 34.3235 36.6663 32.4379 36.6663 28.6667V11.3333C36.6663 7.96693 36.6663 6.10304 35.833 4.90834V28.3333C35.0036 28.3333 34.5889 28.3333 34.1958 28.2537C33.6902 28.1513 33.2091 27.9521 32.7792 27.667C32.445 27.4453 32.1517 27.1521 31.5652 26.5656L29.4948 24.4951C28.1614 23.1618 27.4948 22.4951 26.6663 22.4951C25.8379 22.4951 25.1712 23.1618 23.8379 24.4951L22.0885 26.2445C21.1421 27.1909 20.6689 27.6641 20.1479 27.5638C19.6269 27.4634 19.3632 26.8483 18.836 25.6181L17.327 22.0971C16.2725 19.6367 15.7453 18.4065 14.7033 18.2058C13.6612 18.0051 12.7148 18.9515 10.822 20.8444L5.83301 25.8333V3.71883C5.29856 3.89172 4.86734 4.14216 4.50458 4.50491Z" fill="white"/>
<path d="M4.33301 11.3333C4.33301 9.41944 4.33513 8.08462 4.47054 7.07749C4.60208 6.09912 4.84267 5.58103 5.21169 5.21201C5.5807 4.84299 6.0988 4.6024 7.07717 4.47086C8.0843 4.33545 9.41912 4.33333 11.333 4.33333H28.6663C30.5802 4.33333 31.915 4.33545 32.9222 4.47086C33.9005 4.6024 34.4186 4.84299 34.7877 5.21201L35.4948 4.5049L34.7877 5.21201C35.1567 5.58103 35.3973 6.09912 35.5288 7.07749C35.6642 8.08462 35.6663 9.41944 35.6663 11.3333V28.6667C35.6663 30.5805 35.6642 31.9154 35.5288 32.9225C35.3973 33.9009 35.1567 34.419 34.7877 34.788C34.4186 35.157 33.9005 35.3976 32.9222 35.5291C31.915 35.6645 30.5802 35.6667 28.6663 35.6667H11.333C9.41912 35.6667 8.0843 35.6645 7.07717 35.5291C6.0988 35.3976 5.58071 35.157 5.21169 34.788L4.51331 35.4864L5.21169 34.788C4.84267 34.419 4.60208 33.9009 4.47054 32.9225C4.33513 31.9154 4.33301 30.5805 4.33301 28.6667V11.3333Z" stroke="white" stroke-width="2"/>
<circle cx="25.0003" cy="15" r="3.33333" fill="white"/>
</svg>
