<svg width="30" height="30" viewBox="0 0 30 30" fill="none" xmlns="http://www.w3.org/2000/svg">
<path d="M16.4819 6.85124L20.5047 2.82843C21.838 1.4951 22.5047 0.82843 23.3331 0.82843C24.1615 0.82843 24.8282 1.4951 26.1615 2.82843L27.1713 3.83824C28.5047 5.17158 29.1713 5.83824 29.1713 6.66667C29.1713 7.4951 28.5047 8.16176 27.1713 9.4951L23.1848 13.4816C20.4165 11.8714 18.1121 9.58424 16.4819 6.85124Z" fill="white"/>
<path d="M15.0276 8.30549L2.52282 20.8103C2.09776 21.2354 1.88523 21.4479 1.74549 21.709C1.60576 21.9701 1.54681 22.2648 1.42892 22.8543L0.14686 29.2646C0.0803376 29.5972 0.0470765 29.7635 0.141685 29.8581C0.236289 29.9527 0.402585 29.9194 0.735169 29.8529L7.14552 28.5709C7.73497 28.453 8.0297 28.394 8.2908 28.2543C8.55189 28.1145 8.76442 27.902 9.18948 27.477L21.7269 14.9396C19.0092 13.2653 16.7192 10.9913 15.0276 8.30549Z" fill="white"/>
</svg>
