<svg width="20" height="20" viewBox="0 0 20 20" fill="none" xmlns="http://www.w3.org/2000/svg">
<path d="M10 13.3334L9.29289 14.0405L10 14.7476L10.7071 14.0405L10 13.3334ZM11 3.33337C11 2.78109 10.5523 2.33337 10 2.33337C9.44772 2.33337 9 2.78109 9 3.33337L11 3.33337ZM4.29289 9.04048L9.29289 14.0405L10.7071 12.6263L5.70711 7.62627L4.29289 9.04048ZM10.7071 14.0405L15.7071 9.04048L14.2929 7.62627L9.29289 12.6263L10.7071 14.0405ZM11 13.3334L11 3.33337L9 3.33337L9 13.3334L11 13.3334Z" fill="#33363F"/>
<path d="M4.1665 17.5L15.8332 17.5" stroke="#33363F" stroke-width="2"/>
</svg>
