<svg width="30" height="30" viewBox="0 0 30 30" fill="none" xmlns="http://www.w3.org/2000/svg">
<path d="M26.25 3.75V2.25H27.75V3.75H26.25ZM14.8107 17.3107C14.2249 17.8964 13.2751 17.8964 12.6893 17.3107C12.1036 16.7249 12.1036 15.7751 12.6893 15.1893L14.8107 17.3107ZM24.75 13.75V3.75H27.75V13.75H24.75ZM26.25 5.25H16.25V2.25H26.25V5.25ZM27.3107 4.81066L14.8107 17.3107L12.6893 15.1893L25.1893 2.68934L27.3107 4.81066Z" fill="black"/>
<path d="M25 18.75V19C25 21.8284 25 23.2426 24.1213 24.1213C23.2426 25 21.8284 25 19 25H11C8.17157 25 6.75736 25 5.87868 24.1213C5 23.2426 5 21.8284 5 19V11C5 8.17157 5 6.75736 5.87868 5.87868C6.75736 5 8.17157 5 11 5H11.25" stroke="black" stroke-width="3" stroke-linecap="round"/>
</svg>
