<svg width="320" height="308" viewBox="0 0 320 308" fill="none" xmlns="http://www.w3.org/2000/svg">
<mask id="path-1-inside-1_1741_7389" fill="white">
<path fill-rule="evenodd" clip-rule="evenodd" d="M10 0C4.47715 0 0 4.47714 0 9.99998V268.712C0 274.235 4.47715 278.712 10 278.712H275.334L292.826 306.256C294.303 308.581 296.697 308.581 298.174 306.256L316.892 276.781C317.195 276.305 317.436 275.768 317.614 275.195C319.102 273.449 320 271.185 320 268.712V10C320 4.47715 315.523 0 310 0H10Z"/>
</mask>
<path fill-rule="evenodd" clip-rule="evenodd" d="M10 0C4.47715 0 0 4.47714 0 9.99998V268.712C0 274.235 4.47715 278.712 10 278.712H275.334L292.826 306.256C294.303 308.581 296.697 308.581 298.174 306.256L316.892 276.781C317.195 276.305 317.436 275.768 317.614 275.195C319.102 273.449 320 271.185 320 268.712V10C320 4.47715 315.523 0 310 0H10Z" fill="white"/>
<path d="M275.334 278.712L277.022 277.639L276.433 276.712H275.334V278.712ZM292.826 306.256L291.138 307.328L292.826 306.256ZM298.174 306.256L299.862 307.328L298.174 306.256ZM316.892 276.781L315.204 275.709L316.892 276.781ZM317.614 275.195L316.092 273.897L315.827 274.209L315.705 274.599L317.614 275.195ZM2 9.99998C2 5.58171 5.58172 2 10 2V-2C3.37259 -2 -2 3.37256 -2 9.99998H2ZM2 268.712V9.99998H-2V268.712H2ZM10 276.712C5.58172 276.712 2 273.13 2 268.712H-2C-2 275.339 3.37258 280.712 10 280.712V276.712ZM275.334 276.712H10V280.712H275.334V276.712ZM294.514 305.184L277.022 277.639L273.645 279.784L291.138 307.328L294.514 305.184ZM296.486 305.184C296.001 305.948 295.595 306 295.5 306C295.405 306 294.999 305.948 294.514 305.184L291.138 307.328C292.129 308.89 293.66 310 295.5 310C297.34 310 298.871 308.89 299.862 307.328L296.486 305.184ZM315.204 275.709L296.486 305.184L299.862 307.328L318.581 277.853L315.204 275.709ZM315.705 274.599C315.572 275.027 315.4 275.4 315.204 275.709L318.581 277.853C318.99 277.21 319.3 276.508 319.524 275.79L315.705 274.599ZM318 268.712C318 270.692 317.283 272.5 316.092 273.897L319.136 276.492C320.921 274.398 322 271.678 322 268.712H318ZM318 10V268.712H322V10H318ZM310 2C314.418 2 318 5.58172 318 10H322C322 3.37258 316.627 -2 310 -2V2ZM10 2H310V-2H10V2Z" fill="black" mask="url(#path-1-inside-1_1741_7389)"/>
</svg>
